# Rhino

mtllib dense_meshquarter.mtl
o object_1
usemtl diffuse_0
v 0 7.5 0
v 0.9375 7.5 0
v 1.875 7.5 0
v 2.8125 7.5 0
v 3.75 7.5 0
v 4.6875 7.5 0
v 5.625 7.5 0
v 6.5625 7.5 0
v 7.5 7.5 0
v 0 8.4375 0
v 0.9375 8.4375 0
v 1.875 8.4375 0
v 2.8125 8.4375 0
v 3.75 8.4375 0
v 4.6875 8.4375 0
v 5.625 8.4375 0
v 6.5625 8.4375 0
v 7.5 8.4375 0
v 0 9.375 0
v 0.9375 9.375 0
v 1.875 9.375 0
v 2.8125 9.375 0
v 3.75 9.375 0
v 4.6875 9.375 0
v 5.625 9.375 0
v 6.5625 9.375 0
v 7.5 9.375 0
v 0 10.3125 0
v 0.9375 10.3125 0
v 1.875 10.3125 0
v 2.8125 10.3125 0
v 3.75 10.3125 0
v 4.6875 10.3125 0
v 5.625 10.3125 0
v 6.5625 10.3125 0
v 7.5 10.3125 0
v 0 11.25 0
v 0.9375 11.25 0
v 1.875 11.25 0
v 2.8125 11.25 0
v 3.75 11.25 0
v 4.6875 11.25 0
v 5.625 11.25 0
v 6.5625 11.25 0
v 7.5 11.25 0
v 0 12.1875 0
v 0.9375 12.1875 0
v 1.875 12.1875 0
v 2.8125 12.1875 0
v 3.75 12.1875 0
v 4.6875 12.1875 0
v 5.625 12.1875 0
v 6.5625 12.1875 0
v 7.5 12.1875 0
v 0 13.125 0
v 0.9375 13.125 0
v 1.875 13.125 0
v 2.8125 13.125 0
v 3.75 13.125 0
v 4.6875 13.125 0
v 5.625 13.125 0
v 6.5625 13.125 0
v 7.5 13.125 0
v 0 14.0625 0
v 0.9375 14.0625 0
v 1.875 14.0625 0
v 2.8125 14.0625 0
v 3.75 14.0625 0
v 4.6875 14.0625 0
v 5.625 14.0625 0
v 6.5625 14.0625 0
v 7.5 14.0625 0
v 0 15 0
v 0.9375 15 0
v 1.875 15 0
v 2.8125 15 0
v 3.75 15 0
v 4.6875 15 0
v 5.625 15 0
v 6.5625 15 0
v 7.5 15 0
vt 0 0.5
vt 0.0625 0.5
vt 0.125 0.5
vt 0.1875 0.5
vt 0.25 0.5
vt 0.3125 0.5
vt 0.375 0.5
vt 0.4375 0.5
vt 0.5 0.5
vt 0 0.5625
vt 0.0625 0.5625
vt 0.125 0.5625
vt 0.1875 0.5625
vt 0.25 0.5625
vt 0.3125 0.5625
vt 0.375 0.5625
vt 0.4375 0.5625
vt 0.5 0.5625
vt 0 0.625
vt 0.0625 0.625
vt 0.125 0.625
vt 0.1875 0.625
vt 0.25 0.625
vt 0.3125 0.625
vt 0.375 0.625
vt 0.4375 0.625
vt 0.5 0.625
vt 0 0.6875
vt 0.0625 0.6875
vt 0.125 0.6875
vt 0.1875 0.6875
vt 0.25 0.6875
vt 0.3125 0.6875
vt 0.375 0.6875
vt 0.4375 0.6875
vt 0.5 0.6875
vt 0 0.75
vt 0.0625 0.75
vt 0.125 0.75
vt 0.1875 0.75
vt 0.25 0.75
vt 0.3125 0.75
vt 0.375 0.75
vt 0.4375 0.75
vt 0.5 0.75
vt 0 0.8125
vt 0.0625 0.8125
vt 0.125 0.8125
vt 0.1875 0.8125
vt 0.25 0.8125
vt 0.3125 0.8125
vt 0.375 0.8125
vt 0.4375 0.8125
vt 0.5 0.8125
vt 0 0.875
vt 0.0625 0.875
vt 0.125 0.875
vt 0.1875 0.875
vt 0.25 0.875
vt 0.3125 0.875
vt 0.375 0.875
vt 0.4375 0.875
vt 0.5 0.875
vt 0 0.9375
vt 0.0625 0.9375
vt 0.125 0.9375
vt 0.1875 0.9375
vt 0.25 0.9375
vt 0.3125 0.9375
vt 0.375 0.9375
vt 0.4375 0.9375
vt 0.5 0.9375
vt 0 1
vt 0.0625 1
vt 0.125 1
vt 0.1875 1
vt 0.25 1
vt 0.3125 1
vt 0.375 1
vt 0.4375 1
vt 0.5 1
vn 0 0 1
vn 0 0 1
vn 0 0 1
vn 0 0 1
vn 0 0 1
vn 0 0 1
vn 0 0 1
vn 0 0 1
vn 0 0 1
vn 0 0 1
vn 0 0 1
vn 0 0 1
vn 0 0 1
vn 0 0 1
vn 0 0 1
vn 0 0 1
vn 0 0 1
vn 0 0 1
vn 0 0 1
vn 0 0 1
vn 0 0 1
vn 0 0 1
vn 0 0 1
vn 0 0 1
vn 0 0 1
vn 0 0 1
vn 0 0 1
vn 0 0 1
vn 0 0 1
vn 0 0 1
vn 0 0 1
vn 0 0 1
vn 0 0 1
vn 0 0 1
vn 0 0 1
vn 0 0 1
vn 0 0 1
vn 0 0 1
vn 0 0 1
vn 0 0 1
vn 0 0 1
vn 0 0 1
vn 0 0 1
vn 0 0 1
vn 0 0 1
vn 0 0 1
vn 0 0 1
vn 0 0 1
vn 0 0 1
vn 0 0 1
vn 0 0 1
vn 0 0 1
vn 0 0 1
vn 0 0 1
vn 0 0 1
vn 0 0 1
vn 0 0 1
vn 0 0 1
vn 0 0 1
vn 0 0 1
vn 0 0 1
vn 0 0 1
vn 0 0 1
vn 0 0 1
vn 0 0 1
vn 0 0 1
vn 0 0 1
vn 0 0 1
vn 0 0 1
vn 0 0 1
vn 0 0 1
vn 0 0 1
vn 0 0 1
vn 0 0 1
vn 0 0 1
vn 0 0 1
vn 0 0 1
vn 0 0 1
vn 0 0 1
vn 0 0 1
vn 0 0 1
f 1/1/1 2/2/2 11/11/11 10/10/10
f 2/2/2 3/3/3 12/12/12 11/11/11
f 3/3/3 4/4/4 13/13/13 12/12/12
f 4/4/4 5/5/5 14/14/14 13/13/13
f 5/5/5 6/6/6 15/15/15 14/14/14
f 6/6/6 7/7/7 16/16/16 15/15/15
f 7/7/7 8/8/8 17/17/17 16/16/16
f 8/8/8 9/9/9 18/18/18 17/17/17
f 10/10/10 11/11/11 20/20/20 19/19/19
f 11/11/11 12/12/12 21/21/21 20/20/20
f 12/12/12 13/13/13 22/22/22 21/21/21
f 13/13/13 14/14/14 23/23/23 22/22/22
f 14/14/14 15/15/15 24/24/24 23/23/23
f 15/15/15 16/16/16 25/25/25 24/24/24
f 16/16/16 17/17/17 26/26/26 25/25/25
f 17/17/17 18/18/18 27/27/27 26/26/26
f 19/19/19 20/20/20 29/29/29 28/28/28
f 20/20/20 21/21/21 30/30/30 29/29/29
f 21/21/21 22/22/22 31/31/31 30/30/30
f 22/22/22 23/23/23 32/32/32 31/31/31
f 23/23/23 24/24/24 33/33/33 32/32/32
f 24/24/24 25/25/25 34/34/34 33/33/33
f 25/25/25 26/26/26 35/35/35 34/34/34
f 26/26/26 27/27/27 36/36/36 35/35/35
f 28/28/28 29/29/29 38/38/38 37/37/37
f 29/29/29 30/30/30 39/39/39 38/38/38
f 30/30/30 31/31/31 40/40/40 39/39/39
f 31/31/31 32/32/32 41/41/41 40/40/40
f 32/32/32 33/33/33 42/42/42 41/41/41
f 33/33/33 34/34/34 43/43/43 42/42/42
f 34/34/34 35/35/35 44/44/44 43/43/43
f 35/35/35 36/36/36 45/45/45 44/44/44
f 37/37/37 38/38/38 47/47/47 46/46/46
f 38/38/38 39/39/39 48/48/48 47/47/47
f 39/39/39 40/40/40 49/49/49 48/48/48
f 40/40/40 41/41/41 50/50/50 49/49/49
f 41/41/41 42/42/42 51/51/51 50/50/50
f 42/42/42 43/43/43 52/52/52 51/51/51
f 43/43/43 44/44/44 53/53/53 52/52/52
f 44/44/44 45/45/45 54/54/54 53/53/53
f 46/46/46 47/47/47 56/56/56 55/55/55
f 47/47/47 48/48/48 57/57/57 56/56/56
f 48/48/48 49/49/49 58/58/58 57/57/57
f 49/49/49 50/50/50 59/59/59 58/58/58
f 50/50/50 51/51/51 60/60/60 59/59/59
f 51/51/51 52/52/52 61/61/61 60/60/60
f 52/52/52 53/53/53 62/62/62 61/61/61
f 53/53/53 54/54/54 63/63/63 62/62/62
f 55/55/55 56/56/56 65/65/65 64/64/64
f 56/56/56 57/57/57 66/66/66 65/65/65
f 57/57/57 58/58/58 67/67/67 66/66/66
f 58/58/58 59/59/59 68/68/68 67/67/67
f 59/59/59 60/60/60 69/69/69 68/68/68
f 60/60/60 61/61/61 70/70/70 69/69/69
f 61/61/61 62/62/62 71/71/71 70/70/70
f 62/62/62 63/63/63 72/72/72 71/71/71
f 64/64/64 65/65/65 74/74/74 73/73/73
f 65/65/65 66/66/66 75/75/75 74/74/74
f 66/66/66 67/67/67 76/76/76 75/75/75
f 67/67/67 68/68/68 77/77/77 76/76/76
f 68/68/68 69/69/69 78/78/78 77/77/77
f 69/69/69 70/70/70 79/79/79 78/78/78
f 70/70/70 71/71/71 80/80/80 79/79/79
f 71/71/71 72/72/72 81/81/81 80/80/80
