# Rhino

mtllib dense_meshquarterb.mtl
o object_1
usemtl diffuse_0
v 0 0 0
v 0.9375 0 0
v 1.875 0 0
v 2.8125 0 0
v 3.75 0 0
v 4.6875 0 0
v 5.625 0 0
v 6.5625 0 0
v 7.5 0 0
v 8.4375 0 0
v 0 0.9375 0
v 0.9375 0.9375 0
v 1.875 0.9375 0
v 2.8125 0.9375 0
v 3.75 0.9375 0
v 4.6875 0.9375 0
v 5.625 0.9375 0
v 6.5625 0.9375 0
v 7.5 0.9375 0
v 8.4375 0.9375 0
v 0 1.875 0
v 0.9375 1.875 0
v 1.875 1.875 0
v 2.8125 1.875 0
v 3.75 1.875 0
v 4.6875 1.875 0
v 5.625 1.875 0
v 6.5625 1.875 0
v 7.5 1.875 0
v 8.4375 1.875 0
v 0 2.8125 0
v 0.9375 2.8125 0
v 1.875 2.8125 0
v 2.8125 2.8125 0
v 3.75 2.8125 0
v 4.6875 2.8125 0
v 5.625 2.8125 0
v 6.5625 2.8125 0
v 7.5 2.8125 0
v 8.4375 2.8125 0
v 0 3.75 0
v 0.9375 3.75 0
v 1.875 3.75 0
v 2.8125 3.75 0
v 3.75 3.75 0
v 4.6875 3.75 0
v 5.625 3.75 0
v 6.5625 3.75 0
v 7.5 3.75 0
v 8.4375 3.75 0
v 0 4.6875 0
v 0.9375 4.6875 0
v 1.875 4.6875 0
v 2.8125 4.6875 0
v 3.75 4.6875 0
v 4.6875 4.6875 0
v 5.625 4.6875 0
v 6.5625 4.6875 0
v 7.5 4.6875 0
v 8.4375 4.6875 0
v 0 5.625 0
v 0.9375 5.625 0
v 1.875 5.625 0
v 2.8125 5.625 0
v 3.75 5.625 0
v 4.6875 5.625 0
v 5.625 5.625 0
v 6.5625 5.625 0
v 7.5 5.625 0
v 8.4375 5.625 0
v 0 6.5625 0
v 0.9375 6.5625 0
v 1.875 6.5625 0
v 2.8125 6.5625 0
v 3.75 6.5625 0
v 4.6875 6.5625 0
v 5.625 6.5625 0
v 6.5625 6.5625 0
v 7.5 6.5625 0
v 8.4375 6.5625 0
v 0 7.5 0
v 0.9375 7.5 0
v 1.875 7.5 0
v 2.8125 7.5 0
v 3.75 7.5 0
v 4.6875 7.5 0
v 5.625 7.5 0
v 6.5625 7.5 0
v 7.5 7.5 0
v 8.4375 7.5 0
v 0 8.4375 0
v 0.9375 8.4375 0
v 1.875 8.4375 0
v 2.8125 8.4375 0
v 3.75 8.4375 0
v 4.6875 8.4375 0
v 5.625 8.4375 0
v 6.5625 8.4375 0
v 7.5 8.4375 0
v 8.4375 8.4375 0
vt 0 0
vt 0.0625 0
vt 0.125 0
vt 0.1875 0
vt 0.25 0
vt 0.3125 0
vt 0.375 0
vt 0.4375 0
vt 0.5 0
vt 0.5625 0
vt 0 0.0625
vt 0.0625 0.0625
vt 0.125 0.0625
vt 0.1875 0.0625
vt 0.25 0.0625
vt 0.3125 0.0625
vt 0.375 0.0625
vt 0.4375 0.0625
vt 0.5 0.0625
vt 0.5625 0.0625
vt 0 0.125
vt 0.0625 0.125
vt 0.125 0.125
vt 0.1875 0.125
vt 0.25 0.125
vt 0.3125 0.125
vt 0.375 0.125
vt 0.4375 0.125
vt 0.5 0.125
vt 0.5625 0.125
vt 0 0.1875
vt 0.0625 0.1875
vt 0.125 0.1875
vt 0.1875 0.1875
vt 0.25 0.1875
vt 0.3125 0.1875
vt 0.375 0.1875
vt 0.4375 0.1875
vt 0.5 0.1875
vt 0.5625 0.1875
vt 0 0.25
vt 0.0625 0.25
vt 0.125 0.25
vt 0.1875 0.25
vt 0.25 0.25
vt 0.3125 0.25
vt 0.375 0.25
vt 0.4375 0.25
vt 0.5 0.25
vt 0.5625 0.25
vt 0 0.3125
vt 0.0625 0.3125
vt 0.125 0.3125
vt 0.1875 0.3125
vt 0.25 0.3125
vt 0.3125 0.3125
vt 0.375 0.3125
vt 0.4375 0.3125
vt 0.5 0.3125
vt 0.5625 0.3125
vt 0 0.375
vt 0.0625 0.375
vt 0.125 0.375
vt 0.1875 0.375
vt 0.25 0.375
vt 0.3125 0.375
vt 0.375 0.375
vt 0.4375 0.375
vt 0.5 0.375
vt 0.5625 0.375
vt 0 0.4375
vt 0.0625 0.4375
vt 0.125 0.4375
vt 0.1875 0.4375
vt 0.25 0.4375
vt 0.3125 0.4375
vt 0.375 0.4375
vt 0.4375 0.4375
vt 0.5 0.4375
vt 0.5625 0.4375
vt 0 0.5
vt 0.0625 0.5
vt 0.125 0.5
vt 0.1875 0.5
vt 0.25 0.5
vt 0.3125 0.5
vt 0.375 0.5
vt 0.4375 0.5
vt 0.5 0.5
vt 0.5625 0.5
vt 0 0.5625
vt 0.0625 0.5625
vt 0.125 0.5625
vt 0.1875 0.5625
vt 0.25 0.5625
vt 0.3125 0.5625
vt 0.375 0.5625
vt 0.4375 0.5625
vt 0.5 0.5625
vt 0.5625 0.5625
vn 0 0 1
vn 0 0 1
vn 0 0 1
vn 0 0 1
vn 0 0 1
vn 0 0 1
vn 0 0 1
vn 0 0 1
vn 0 0 1
vn 0 0 1
vn 0 0 1
vn 0 0 1
vn 0 0 1
vn 0 0 1
vn 0 0 1
vn 0 0 1
vn 0 0 1
vn 0 0 1
vn 0 0 1
vn 0 0 1
vn 0 0 1
vn 0 0 1
vn 0 0 1
vn 0 0 1
vn 0 0 1
vn 0 0 1
vn 0 0 1
vn 0 0 1
vn 0 0 1
vn 0 0 1
vn 0 0 1
vn 0 0 1
vn 0 0 1
vn 0 0 1
vn 0 0 1
vn 0 0 1
vn 0 0 1
vn 0 0 1
vn 0 0 1
vn 0 0 1
vn 0 0 1
vn 0 0 1
vn 0 0 1
vn 0 0 1
vn 0 0 1
vn 0 0 1
vn 0 0 1
vn 0 0 1
vn 0 0 1
vn 0 0 1
vn 0 0 1
vn 0 0 1
vn 0 0 1
vn 0 0 1
vn 0 0 1
vn 0 0 1
vn 0 0 1
vn 0 0 1
vn 0 0 1
vn 0 0 1
vn 0 0 1
vn 0 0 1
vn 0 0 1
vn 0 0 1
vn 0 0 1
vn 0 0 1
vn 0 0 1
vn 0 0 1
vn 0 0 1
vn 0 0 1
vn 0 0 1
vn 0 0 1
vn 0 0 1
vn 0 0 1
vn 0 0 1
vn 0 0 1
vn 0 0 1
vn 0 0 1
vn 0 0 1
vn 0 0 1
vn 0 0 1
vn 0 0 1
vn 0 0 1
vn 0 0 1
vn 0 0 1
vn 0 0 1
vn 0 0 1
vn 0 0 1
vn 0 0 1
vn 0 0 1
vn 0 0 1
vn 0 0 1
vn 0 0 1
vn 0 0 1
vn 0 0 1
vn 0 0 1
vn 0 0 1
vn 0 0 1
vn 0 0 1
vn 0 0 1
f 1/1/1 2/2/2 12/12/12 11/11/11
f 2/2/2 3/3/3 13/13/13 12/12/12
f 3/3/3 4/4/4 14/14/14 13/13/13
f 4/4/4 5/5/5 15/15/15 14/14/14
f 5/5/5 6/6/6 16/16/16 15/15/15
f 6/6/6 7/7/7 17/17/17 16/16/16
f 7/7/7 8/8/8 18/18/18 17/17/17
f 8/8/8 9/9/9 19/19/19 18/18/18
f 9/9/9 10/10/10 20/20/20 19/19/19
f 11/11/11 12/12/12 22/22/22 21/21/21
f 12/12/12 13/13/13 23/23/23 22/22/22
f 13/13/13 14/14/14 24/24/24 23/23/23
f 14/14/14 15/15/15 25/25/25 24/24/24
f 15/15/15 16/16/16 26/26/26 25/25/25
f 16/16/16 17/17/17 27/27/27 26/26/26
f 17/17/17 18/18/18 28/28/28 27/27/27
f 18/18/18 19/19/19 29/29/29 28/28/28
f 19/19/19 20/20/20 30/30/30 29/29/29
f 21/21/21 22/22/22 32/32/32 31/31/31
f 22/22/22 23/23/23 33/33/33 32/32/32
f 23/23/23 24/24/24 34/34/34 33/33/33
f 24/24/24 25/25/25 35/35/35 34/34/34
f 25/25/25 26/26/26 36/36/36 35/35/35
f 26/26/26 27/27/27 37/37/37 36/36/36
f 27/27/27 28/28/28 38/38/38 37/37/37
f 28/28/28 29/29/29 39/39/39 38/38/38
f 29/29/29 30/30/30 40/40/40 39/39/39
f 31/31/31 32/32/32 42/42/42 41/41/41
f 32/32/32 33/33/33 43/43/43 42/42/42
f 33/33/33 34/34/34 44/44/44 43/43/43
f 34/34/34 35/35/35 45/45/45 44/44/44
f 35/35/35 36/36/36 46/46/46 45/45/45
f 36/36/36 37/37/37 47/47/47 46/46/46
f 37/37/37 38/38/38 48/48/48 47/47/47
f 38/38/38 39/39/39 49/49/49 48/48/48
f 39/39/39 40/40/40 50/50/50 49/49/49
f 41/41/41 42/42/42 52/52/52 51/51/51
f 42/42/42 43/43/43 53/53/53 52/52/52
f 43/43/43 44/44/44 54/54/54 53/53/53
f 44/44/44 45/45/45 55/55/55 54/54/54
f 45/45/45 46/46/46 56/56/56 55/55/55
f 46/46/46 47/47/47 57/57/57 56/56/56
f 47/47/47 48/48/48 58/58/58 57/57/57
f 48/48/48 49/49/49 59/59/59 58/58/58
f 49/49/49 50/50/50 60/60/60 59/59/59
f 51/51/51 52/52/52 62/62/62 61/61/61
f 52/52/52 53/53/53 63/63/63 62/62/62
f 53/53/53 54/54/54 64/64/64 63/63/63
f 54/54/54 55/55/55 65/65/65 64/64/64
f 55/55/55 56/56/56 66/66/66 65/65/65
f 56/56/56 57/57/57 67/67/67 66/66/66
f 57/57/57 58/58/58 68/68/68 67/67/67
f 58/58/58 59/59/59 69/69/69 68/68/68
f 59/59/59 60/60/60 70/70/70 69/69/69
f 61/61/61 62/62/62 72/72/72 71/71/71
f 62/62/62 63/63/63 73/73/73 72/72/72
f 63/63/63 64/64/64 74/74/74 73/73/73
f 64/64/64 65/65/65 75/75/75 74/74/74
f 65/65/65 66/66/66 76/76/76 75/75/75
f 66/66/66 67/67/67 77/77/77 76/76/76
f 67/67/67 68/68/68 78/78/78 77/77/77
f 68/68/68 69/69/69 79/79/79 78/78/78
f 69/69/69 70/70/70 80/80/80 79/79/79
f 71/71/71 72/72/72 82/82/82 81/81/81
f 72/72/72 73/73/73 83/83/83 82/82/82
f 73/73/73 74/74/74 84/84/84 83/83/83
f 74/74/74 75/75/75 85/85/85 84/84/84
f 75/75/75 76/76/76 86/86/86 85/85/85
f 76/76/76 77/77/77 87/87/87 86/86/86
f 77/77/77 78/78/78 88/88/88 87/87/87
f 78/78/78 79/79/79 89/89/89 88/88/88
f 79/79/79 80/80/80 90/90/90 89/89/89
f 81/81/81 82/82/82 92/92/92 91/91/91
f 82/82/82 83/83/83 93/93/93 92/92/92
f 83/83/83 84/84/84 94/94/94 93/93/93
f 84/84/84 85/85/85 95/95/95 94/94/94
f 85/85/85 86/86/86 96/96/96 95/95/95
f 86/86/86 87/87/87 97/97/97 96/96/96
f 87/87/87 88/88/88 98/98/98 97/97/97
f 88/88/88 89/89/89 99/99/99 98/98/98
f 89/89/89 90/90/90 100/100/100 99/99/99
